<svg id="Layer_1" data-name="Layer 1" xmlns="http://www.w3.org/2000/svg" xmlns:xlink="http://www.w3.org/1999/xlink" viewBox="0 0 50 50"><defs><style>.cls-1{fill:#fff;}.cls-2{fill:url(#Degradado_sin_nombre_24);}.cls-3{fill:url(#Degradado_sin_nombre_24-2);}.cls-4{fill:url(#Degradado_sin_nombre_24-3);}.cls-5{fill:url(#Degradado_sin_nombre_24-4);}</style><linearGradient id="Degradado_sin_nombre_24" x1="28.25" y1="30.15" x2="21.75" y2="18.89" gradientUnits="userSpaceOnUse"><stop offset="0" stop-color="#5d53a3"/><stop offset="0.42" stop-color="#ac3d96"/><stop offset="0.52" stop-color="#b7398a"/><stop offset="0.69" stop-color="#d32d6b"/><stop offset="0.78" stop-color="#e52557"/><stop offset="0.82" stop-color="#e73457"/><stop offset="0.87" stop-color="#ee5a56"/><stop offset="0.95" stop-color="#f79855"/><stop offset="1" stop-color="#fec154"/></linearGradient><linearGradient id="Degradado_sin_nombre_24-2" x1="28.92" y1="31.79" x2="21.08" y2="18.21" xlink:href="#Degradado_sin_nombre_24"/><linearGradient id="Degradado_sin_nombre_24-3" x1="32.96" y1="38.78" x2="17.04" y2="11.22" xlink:href="#Degradado_sin_nombre_24"/><linearGradient id="Degradado_sin_nombre_24-4" x1="33.97" y1="18.23" x2="31.96" y2="16.79" xlink:href="#Degradado_sin_nombre_24"/></defs><title>Untitled-4</title><path class="cls-1" d="M25,3A22,22,0,1,0,47,25,22,22,0,0,0,25,3Z"/><path class="cls-2" d="M18.71,35.66ZM31.29,13.39Z"/><path class="cls-3" d="M25,32.85A7.85,7.85,0,1,0,17.15,25,7.86,7.86,0,0,0,25,32.85ZM19.06,25A5.94,5.94,0,1,1,25,31,5.95,5.95,0,0,1,19.06,25Z"/><path class="cls-4" d="M32.83,38H17.17a5.33,5.33,0,0,1-5.32-5.32V17.29A5.33,5.33,0,0,1,17.17,12H32.83a5.33,5.33,0,0,1,5.32,5.32V32.71A5.33,5.33,0,0,1,32.83,38ZM17.17,13.91a3.39,3.39,0,0,0-3.38,3.38V32.71a3.39,3.39,0,0,0,3.38,3.38H32.83a3.39,3.39,0,0,0,3.38-3.38V17.29a3.39,3.39,0,0,0-3.38-3.38Z"/><path class="cls-5" d="M33,16.26a1.24,1.24,0,1,0,1.24,1.24A1.25,1.25,0,0,0,33,16.26Z"/></svg>