<svg id="Layer_1" data-name="Layer 1" xmlns="http://www.w3.org/2000/svg" viewBox="0 0 50 50"><defs><style>.cls-1{fill:#fff;}.cls-2{fill:#49a1da;}</style></defs><title>Untitled-4</title><path class="cls-1" d="M47,25A22,22,0,1,0,25,47,22,22,0,0,0,47,25Z"/><path class="cls-2" d="M37.75,18.41a10.86,10.86,0,0,1-2.8.71,5.24,5.24,0,0,0,2.27-2.7c0-.07,0-.13-.12-.1a10.57,10.57,0,0,1-3.2,1.17A5.37,5.37,0,0,0,30,15.83a5.29,5.29,0,0,0-5.2,6.46,15.27,15.27,0,0,1-11-5.46,0,0,0,0,0,0,0,5.15,5.15,0,0,0-.71,2.61,5.24,5.24,0,0,0,2.29,4.31,0,0,0,0,1,0,.06,5.56,5.56,0,0,1-2.27-.63,0,0,0,0,0,0,0,7.43,7.43,0,0,0,.36,1.92,5.43,5.43,0,0,0,3.93,3.26,6,6,0,0,1-1.41.18,5,5,0,0,1-1-.09s0,0,0,0a5.33,5.33,0,0,0,4.88,3.6,0,0,0,0,1,0,.06,10.81,10.81,0,0,1-6.56,2.19A10.58,10.58,0,0,1,12,34.29a15.29,15.29,0,0,0,8.18,2.36,14.86,14.86,0,0,0,10-3.61A15.41,15.41,0,0,0,35,24.87a14.43,14.43,0,0,0,.37-3.17c0-.23,0-.46,0-.68a10.94,10.94,0,0,0,2.5-2.49A.08.08,0,0,0,37.75,18.41Z"/></svg>